<svg enable-background="new 0 0 24 24" height="512" viewBox="0 0 24 24" width="512" xmlns="http://www.w3.org/2000/svg"><path d="m21.25 3h-18.5c-1.517 0-2.75 1.233-2.75 2.75v12.5c0 1.517 1.233 2.75 2.75 2.75h18.5c1.517 0 2.75-1.233 2.75-2.75v-12.5c0-1.517-1.233-2.75-2.75-2.75zm-3.25 10.75c0 1.24-1.009 2.25-2.25 2.25-.974 0-1.797-.626-2.11-1.493-.472.309-1.034.493-1.64.493-1.654 0-3-1.346-3-3s1.346-3 3-3 3 1.346 3 3v1.75c0 .413.336.75.75.75s.75-.337.75-.75v-1.75c0-2.481-2.019-4.5-4.5-4.5s-4.5 2.019-4.5 4.5 2.019 4.5 4.5 4.5c.414 0 .75.336.75.75s-.336.75-.75.75c-3.309 0-6-2.691-6-6s2.691-6 6-6 6 2.691 6 6z"/><circle cx="12" cy="12" r="1.5"/></svg>