<svg enable-background="new 0 0 24 24" height="512" viewBox="0 0 24 24" width="512" xmlns="http://www.w3.org/2000/svg"><circle cx="11" cy="14" r="1.5"/><path d="m21 4h-1v-3c0-.553-.447-1-1-1h-15c-1.654 0-3 1.346-3 3v18c0 1.654 1.346 3 3 3h17c.553 0 1-.447 1-1v-18c0-.553-.447-1-1-1zm-4 11.75c0 1.24-1.01 2.25-2.25 2.25-.974 0-1.797-.626-2.11-1.494-.472.31-1.034.494-1.64.494-1.654 0-3-1.346-3-3s1.346-3 3-3 3 1.346 3 3v1.75c0 .413.337.75.75.75s.75-.337.75-.75v-1.75c0-2.481-2.019-4.5-4.5-4.5s-4.5 2.019-4.5 4.5 2.019 4.5 4.5 4.5c.414 0 .75.336.75.75s-.336.75-.75.75c-3.309 0-6-2.691-6-6s2.691-6 6-6 6 2.691 6 6zm1-11.75h-14c-.552 0-1-.448-1-1s.448-1 1-1h14z"/></svg>