<svg enable-background="new 0 0 24 24" height="512" viewBox="0 0 24 24" width="512" xmlns="http://www.w3.org/2000/svg"><path d="m15.854 23.146c-1.313-1.313-1.353-2.586-1.354-2.649-.002-.275-.225-.497-.5-.497h-4.02c-.276 0-.5.227-.5.503 0 .054-.018 1.328-1.333 2.644-.143.143-.186.358-.108.545.076.186.259.308.461.308h7c.202 0 .385-.122.462-.309s.034-.401-.108-.545z"/><path d="m22.25 4h-.75c-.552 0-1 .448-1 1s.448 1 1 1h.5v11h-20v-11h.5c.552 0 1-.448 1-1s-.448-1-1-1h-.75c-.966 0-1.75.784-1.75 1.75v13.5c0 .966.784 1.75 1.75 1.75h20.5c.966 0 1.75-.784 1.75-1.75v-13.5c0-.966-.784-1.75-1.75-1.75z"/><path d="m17 0h-10c-1.103 0-2 .897-2 2v6c0 1.103.897 2 2 2h10c1.103 0 2-.897 2-2v-6c0-1.103-.897-2-2-2zm0 4-4.68 2.18c-.1.05-.21.07-.32.07s-.22-.02-.32-.07l-4.68-2.18v-1.66l5 2.33 5-2.33z"/></svg>