<svg enable-background="new 0 0 24 24" height="512" viewBox="0 0 24 24" width="512" xmlns="http://www.w3.org/2000/svg"><path d="m21.75 8h-3.768c-.054.593-.294 1.166-.716 1.621l-3.25 3.5c-.52.559-1.254.879-2.016.879s-1.496-.32-2.015-.878l-3.251-3.501c-.422-.455-.661-1.028-.716-1.621h-3.768c-1.241 0-2.25 1.009-2.25 2.25v11.5c0 1.241 1.009 2.25 2.25 2.25h19.5c1.241 0 2.25-1.009 2.25-2.25v-11.5c0-1.241-1.009-2.25-2.25-2.25zm.25 4.91-8.61 4.5c-.43.22-.91.34-1.39.34s-.95-.12-1.39-.34l-8.61-4.5v-2.26l9.53 4.98c.29.15.65.15.94 0l9.53-4.98z"/><path d="m15.937 7.45c-.119-.273-.389-.45-.687-.45h-2.25v-6c0-.552-.448-1-1-1s-1 .448-1 1v6h-2.25c-.298 0-.568.177-.688.45-.119.274-.064.592.138.81l3.25 3.5c.142.153.342.24.55.24s.408-.087.55-.24l3.25-3.5c.202-.218.257-.536.137-.81z"/></svg>