<svg enable-background="new 0 0 24 24" height="512" viewBox="0 0 24 24" width="512" xmlns="http://www.w3.org/2000/svg"><path d="m17.5 11c.926 0 1.787.281 2.504.763.53-.474 1.23-.763 1.996-.763v-8.5c0-1.381-1.119-2.5-2.5-2.5h-17c-1.381 0-2.5 1.119-2.5 2.5v9c0 1.381 1.119 2.5 2.5 2.5h10.776c.622-1.742 2.271-3 4.224-3zm-7.03-2.92-8.47-3.95v-1.66l9 4.2 9-4.2v1.66l-8.47 3.95c-.17.08-.35.12-.53.12s-.36-.04-.53-.12z"/><path d="m19 24c-2.206 0-4-1.794-4-4v-4.5c0-1.378 1.121-2.5 2.5-2.5s2.5 1.122 2.5 2.5v4c0 .552-.447 1-1 1s-1-.448-1-1v-4c0-.276-.225-.5-.5-.5s-.5.224-.5.5v4.5c0 1.103.897 2 2 2s2-.897 2-2v-6c0-.552.447-1 1-1s1 .448 1 1v6c0 2.206-1.794 4-4 4z"/></svg>