<svg enable-background="new 0 0 24 24" height="512" viewBox="0 0 24 24" width="512" xmlns="http://www.w3.org/2000/svg"><path d="m17.5 11c-3.584 0-6.5 2.916-6.5 6.5s2.916 6.5 6.5 6.5 6.5-2.916 6.5-6.5-2.916-6.5-6.5-6.5zm3.082 5.223-3.25 4c-.134.165-.332.265-.543.276-.013 0-.026.001-.039.001-.198 0-.389-.079-.53-.22l-2-2c-.293-.293-.293-.768 0-1.061s.768-.293 1.061 0l1.412 1.412 2.726-3.355c.26-.321.733-.371 1.055-.109.32.262.369.734.108 1.056z"/><path d="m17.5 9c1.654 0 3.193.482 4.5 1.302v-7.802c0-1.381-1.119-2.5-2.5-2.5h-17c-1.381 0-2.5 1.119-2.5 2.5v9c0 1.381 1.119 2.5 2.5 2.5h7.263c1.337-2.944 4.298-5 7.737-5zm-15.5-6.53 9 4.2 9-4.2v1.66l-8.47 3.95c-.17.08-.35.12-.53.12s-.36-.04-.53-.12l-8.47-3.95z"/></svg>