<svg enable-background="new 0 0 24 24" height="512" viewBox="0 0 24 24" width="512" xmlns="http://www.w3.org/2000/svg"><path d="m18.612 10.419c.639-.642 1.542-1.011 2.474-1.011.312 0 .617.056.914.135v-7.043c0-1.381-1.119-2.5-2.5-2.5h-17c-1.381 0-2.5 1.119-2.5 2.5v9c0 1.381 1.119 2.5 2.5 2.5h12.531zm-8.142-2.339-8.47-3.95v-1.66l9 4.2 9-4.2v1.66l-8.47 3.95c-.17.08-.35.12-.53.12s-.36-.04-.53-.12z"/><path d="m17.617 14.242-5.369 5.369c-.07.07-.117.159-.137.255l-.707 3.536c-.033.164.019.333.137.452.094.094.222.146.353.146.033 0 .065-.003.098-.01l3.535-.707c.097-.02.186-.067.255-.137l5.369-5.369z"/><path d="m23.561 13.247-1.414-1.414c-.567-.566-1.556-.566-2.121 0l-1.349 1.349 3.535 3.535 1.349-1.349c.585-.585.585-1.536 0-2.121z"/></svg>