<svg enable-background="new 0 0 24 24" height="512" viewBox="0 0 24 24" width="512" xmlns="http://www.w3.org/2000/svg"><path d="m11.593 13.397 2.424-.137.901-2.457c.396-1.078 1.434-1.803 2.582-1.803s2.186.725 2.582 1.803l.901 2.457.534.03c.297-.349.483-.796.483-1.29v-9.5c0-1.381-1.119-2.5-2.5-2.5h-17c-1.381 0-2.5 1.119-2.5 2.5v9c0 1.381 1.119 2.5 2.5 2.5h7.529c.436-.351.976-.569 1.564-.603zm-9.593-10.927 9 4.2 9-4.2v1.66l-8.47 3.95c-.17.08-.35.12-.53.12s-.36-.04-.53-.12l-8.47-3.95z"/><path d="m23.961 15.903c-.098-.29-.363-.492-.668-.509l-3.735-.211-1.354-3.69c-.108-.297-.39-.493-.704-.493s-.596.196-.704.492l-1.354 3.69-3.735.211c-.306.018-.57.219-.668.509-.098.291-.009.611.224.81l2.932 2.503-.975 3.85c-.077.302.042.62.297.798.256.179.594.18.852.006l3.132-2.131 3.132 2.131c.127.086.274.13.422.13.15 0 .301-.045.43-.136.255-.178.374-.497.297-.798l-.975-3.85 2.932-2.503c.231-.198.32-.519.222-.809z"/></svg>