<svg enable-background="new 0 0 24 24" height="512" viewBox="0 0 24 24" width="512" xmlns="http://www.w3.org/2000/svg"><path d="m16 14v-.25c0-1.132.68-2.135 1.731-2.554.33-.131.671-.196 1.019-.196.751 0 1.479.313 1.996.859l.884.933c.23-.378.37-.817.37-1.292v-9c0-1.381-1.119-2.5-2.5-2.5h-17c-1.381 0-2.5 1.119-2.5 2.5v9c0 1.381 1.119 2.5 2.5 2.5h8.25zm-14-9.87v-1.66l9 4.2 9-4.2v1.66l-8.47 3.95c-.17.08-.35.12-.53.12s-.36-.04-.53-.12z"/><path d="m23.794 17.984-4.5-4.75c-.211-.223-.536-.294-.822-.181-.285.114-.472.39-.472.697v2.25h-7.25c-.414 0-.75.336-.75.75v3.5c0 .414.336.75.75.75h7.25v2.25c0 .307.187.583.472.697.09.035.185.053.278.053.202 0 .4-.082.544-.234l4.5-4.75c.274-.289.274-.743 0-1.032z"/></svg>