<svg enable-background="new 0 0 24 24" height="512" viewBox="0 0 24 24" width="512" xmlns="http://www.w3.org/2000/svg"><path d="m14.75 10c.968 0 1.914.246 2.75.699.836-.453 1.782-.699 2.75-.699.61 0 1.198.097 1.75.274v-7.774c0-1.381-1.119-2.5-2.5-2.5h-17c-1.381 0-2.5 1.119-2.5 2.5v9c0 1.381 1.119 2.5 2.5 2.5h6.771c.74-2.317 2.915-4 5.479-4zm-12.75-7.53 9 4.2 9-4.2v1.66l-8.47 3.95c-.17.08-.35.12-.53.12s-.36-.04-.53-.12l-8.47-3.95z"/><path d="m20.25 12c-1.063 0-2.054.446-2.75 1.194-.696-.748-1.687-1.194-2.75-1.194-2.067 0-3.75 1.677-3.75 3.738 0 3.512 5.433 7.653 6.053 8.114.133.099.29.148.447.148s.314-.049.447-.148c.62-.461 6.053-4.602 6.053-8.114 0-2.061-1.683-3.738-3.75-3.738z"/></svg>