<svg enable-background="new 0 0 24 24" height="512" viewBox="0 0 24 24" width="512" xmlns="http://www.w3.org/2000/svg"><path d="m19.5 11c.914 0 1.764.276 2.475.746.008-.082.025-.162.025-.246v-9c0-1.381-1.119-2.5-2.5-2.5h-17c-1.381 0-2.5 1.119-2.5 2.5v9c0 1.381 1.119 2.5 2.5 2.5h12.778c.621-1.742 2.27-3 4.222-3zm-9.03-2.92-8.47-3.95v-1.66l9 4.2 9-4.2v1.66l-8.47 3.95c-.17.08-.35.12-.53.12s-.36-.04-.53-.12z"/><path d="m22.25 17h-.25v-1.5c0-1.378-1.122-2.5-2.5-2.5s-2.5 1.122-2.5 2.5v1.5h-.25c-.965 0-1.75.785-1.75 1.75v3.5c0 .965.785 1.75 1.75 1.75h5.5c.965 0 1.75-.785 1.75-1.75v-3.5c0-.965-.785-1.75-1.75-1.75zm-3.75-1.5c0-.551.449-1 1-1s1 .449 1 1v1.5h-2z"/></svg>