<svg enable-background="new 0 0 24 24" height="512" viewBox="0 0 24 24" width="512" xmlns="http://www.w3.org/2000/svg"><path d="m17.5 9c1.654 0 3.193.482 4.5 1.302v-7.802c0-1.381-1.119-2.5-2.5-2.5h-17c-1.381 0-2.5 1.119-2.5 2.5v9c0 1.381 1.119 2.5 2.5 2.5h7.263c1.337-2.944 4.298-5 7.737-5zm-15.5-6.53 9 4.2 9-4.2v1.66l-8.47 3.95c-.17.08-.35.12-.53.12s-.36-.04-.53-.12l-8.47-3.95z"/><path d="m17.5 11c-3.584 0-6.5 2.916-6.5 6.5s2.916 6.5 6.5 6.5 6.5-2.916 6.5-6.5-2.916-6.5-6.5-6.5zm2.75 7.25h-2.75c-.414 0-.75-.336-.75-.75v-2.75c0-.414.336-.75.75-.75s.75.336.75.75v2h2c.414 0 .75.336.75.75s-.336.75-.75.75z"/></svg>