<svg enable-background="new 0 0 24 24" height="512" viewBox="0 0 24 24" width="512" xmlns="http://www.w3.org/2000/svg"><path d="m13.253 10.859c.514-.545 1.243-.859 1.997-.859.348 0 .688.065 1.012.193 1.058.422 1.738 1.425 1.738 2.557v.494c.715.158 1.396.397 2.043.693 1.119-.249 1.957-1.243 1.957-2.437v-9c0-1.381-1.119-2.5-2.5-2.5h-17c-1.381 0-2.5 1.119-2.5 2.5v9c0 1.381 1.119 2.5 2.5 2.5h7.778zm-11.253-8.389 9 4.2 9-4.2v1.66l-8.47 3.95c-.17.08-.35.12-.53.12s-.36-.04-.53-.12l-8.47-3.95z"/><path d="m16 15.004v-2.254c0-.307-.187-.583-.472-.697-.286-.113-.611-.042-.822.181l-4.5 4.75c-.274.289-.274.742 0 1.031l4.5 4.75c.211.224.537.293.822.181.285-.113.472-.389.472-.696v-2.25h.593c2.343 0 4.482 1.186 5.724 3.173l.297.475c.14.223.382.352.636.352.069 0 .138-.009.207-.029.321-.093.543-.387.543-.721 0-4.465-3.566-8.114-8-8.246z"/></svg>