<svg enable-background="new 0 0 24 24" height="512" viewBox="0 0 24 24" width="512" xmlns="http://www.w3.org/2000/svg"><path d="m10 12.536c0-1.178.75-2.225 1.865-2.604l5.25-1.786c.281-.096.581-.146.885-.146s.604.05.892.149l3.108 1.057v-6.706c0-1.381-1.119-2.5-2.5-2.5h-17c-1.381 0-2.5 1.119-2.5 2.5v9c0 1.381 1.119 2.5 2.5 2.5h7.5zm-8-10.066 9 4.2 9-4.2v1.66l-8.47 3.95c-.17.08-.35.12-.53.12s-.36-.04-.53-.12l-8.47-3.95z"/><path d="m23.491 11.826-5.25-1.786c-.156-.054-.326-.054-.482 0l-5.25 1.786c-.305.103-.509.388-.509.71v4.018c0 4.904 5.474 7.288 5.707 7.387.094.039.193.059.293.059s.199-.02.293-.06c.233-.099 5.707-2.482 5.707-7.386v-4.018c0-.322-.204-.607-.509-.71zm-1.941 3.524-3 4c-.174.232-.439.377-.729.397-.024.001-.048.002-.071.002-.265 0-.519-.104-.707-.293l-2-2c-.391-.391-.391-1.023 0-1.414s1.023-.391 1.414 0l1.185 1.185 2.309-3.078c.331-.441.958-.532 1.399-.2.442.332.532.959.2 1.401z"/></svg>