<svg enable-background="new 0 0 24 24" height="512" viewBox="0 0 24 24" width="512" xmlns="http://www.w3.org/2000/svg"><path d="m10 12.536c0-1.178.75-2.225 1.865-2.604l5.25-1.786c.281-.096.581-.146.885-.146s.604.05.892.149l3.108 1.057v-6.706c0-1.381-1.119-2.5-2.5-2.5h-17c-1.381 0-2.5 1.119-2.5 2.5v9c0 1.381 1.119 2.5 2.5 2.5h7.5zm-8-10.066 9 4.2 9-4.2v1.66l-8.47 3.95c-.17.08-.35.12-.53.12s-.36-.04-.53-.12l-8.47-3.95z"/><path d="m17.25 15.5v-5.037l-4.741 1.613c-.305.103-.509.388-.509.71v2.714z"/><path d="m18.75 15.5h5.25v-2.714c0-.321-.204-.606-.509-.71l-4.741-1.613z"/><path d="m17.25 17h-5.236c.124 4.018 3.906 6.296 5.236 6.972z"/><path d="m18.75 17v6.972c1.331-.676 5.113-2.953 5.236-6.972z"/></svg>