<svg enable-background="new 0 0 24 24" height="512" viewBox="0 0 24 24" width="512" xmlns="http://www.w3.org/2000/svg"><path d="m13.841 11.767c.635-1.078 1.853-1.767 3.159-1.767s2.526.694 3.186 1.811l.96 1.558c.519-.458.854-1.121.854-1.869v-9c0-1.381-1.119-2.5-2.5-2.5h-17c-1.381 0-2.5 1.119-2.5 2.5v9c0 1.381 1.119 2.5 2.5 2.5h9.967zm-3.371-3.687-8.47-3.95v-1.66l9 4.2 9-4.2v1.66l-8.47 3.95c-.17.08-.35.12-.53.12s-.36-.04-.53-.12z"/><path d="m23.745 21.406-5.282-8.579c-.301-.51-.862-.827-1.463-.827s-1.162.317-1.456.815l-5.273 8.566c-.177.265-.271.581-.271.914 0 .94.768 1.705 1.711 1.705h10.577c.944 0 1.712-.765 1.712-1.705 0-.333-.094-.649-.255-.889zm-6.745.594c-.414 0-.75-.336-.75-.75s.336-.75.75-.75.75.336.75.75-.336.75-.75.75zm.75-3.25c0 .414-.336.75-.75.75s-.75-.336-.75-.75v-3c0-.414.336-.75.75-.75s.75.336.75.75z"/></svg>