<svg enable-background="new 0 0 24 24" height="512" viewBox="0 0 24 24" width="512" xmlns="http://www.w3.org/2000/svg"><path d="m22.25 14h-2.756c-.778 0-1.452.501-1.677 1.247l-.858 2.862c-.157.525-.649.891-1.197.891h-7.524c-.548 0-1.04-.366-1.197-.891l-.858-2.862c-.224-.746-.898-1.247-1.677-1.247h-2.756c-.965 0-1.75.785-1.75 1.75v5.5c0 1.517 1.233 2.75 2.75 2.75h18.5c1.517 0 2.75-1.233 2.75-2.75v-5.5c0-.965-.785-1.75-1.75-1.75z"/><path d="m4 12c-.552 0-1-.448-1-1v-8c0-1.654 1.346-3 3-3h12c1.654 0 3 1.346 3 3v8c0 .552-.448 1-1 1s-1-.448-1-1v-8c0-.551-.449-1-1-1h-12c-.551 0-1 .449-1 1v8c0 .552-.448 1-1 1z"/><path d="m12 14c-2.067 0-3.75-1.682-3.75-3.75v-3c0-1.241 1.01-2.25 2.25-2.25s2.25 1.009 2.25 2.25v3c0 .414-.336.75-.75.75s-.75-.336-.75-.75v-3c0-.414-.337-.75-.75-.75s-.75.336-.75.75v3c0 1.241 1.01 2.25 2.25 2.25s2.25-1.009 2.25-2.25v-4.5c0-.414.336-.75.75-.75s.75.336.75.75v4.5c0 2.068-1.683 3.75-3.75 3.75z"/></svg>