<svg enable-background="new 0 0 24 24" height="512" viewBox="0 0 24 24" width="512" xmlns="http://www.w3.org/2000/svg"><circle cx="8.25" cy="5.25" r=".5"/><path d="m8.25 6.5c-.689 0-1.25-.561-1.25-1.25s.561-1.25 1.25-1.25 1.25.561 1.25 1.25-.561 1.25-1.25 1.25zm0-1.5c-.138 0-.25.112-.25.25 0 .275.5.275.5 0 0-.138-.112-.25-.25-.25z"/><path d="m7.25 11.25 2-2.5 2.25 1.5 2.25-3.5 3 4.5z"/><path d="m16.75 12h-9.5c-.288 0-.551-.165-.676-.425s-.09-.568.09-.793l2-2.5c.243-.304.678-.372 1.002-.156l1.616 1.077 1.837-2.859c.137-.212.372-.342.625-.344.246-.026.49.123.63.334l3 4.5c.153.23.168.526.037.77-.13.244-.385.396-.661.396zm-4.519-1.5h3.118l-1.587-2.381zm-3.42 0h1.712l-1.117-.745z"/><path d="m22.25 14h-2.756c-.778 0-1.452.501-1.676 1.247l-.859 2.862c-.16.533-.641.891-1.197.891h-7.524c-.556 0-1.037-.358-1.197-.891l-.859-2.861c-.224-.747-.897-1.248-1.676-1.248h-2.756c-.965 0-1.75.785-1.75 1.75v5.5c0 1.517 1.233 2.75 2.75 2.75h18.5c1.517 0 2.75-1.233 2.75-2.75v-5.5c0-.965-.785-1.75-1.75-1.75z"/><path d="m4 12c-.552 0-1-.448-1-1v-8c0-1.654 1.346-3 3-3h12c1.654 0 3 1.346 3 3v8c0 .552-.448 1-1 1s-1-.448-1-1v-8c0-.551-.449-1-1-1h-12c-.551 0-1 .449-1 1v8c0 .552-.448 1-1 1z"/></svg>