<svg enable-background="new 0 0 24 24" height="512" viewBox="0 0 24 24" width="512" xmlns="http://www.w3.org/2000/svg"><path d="m12.5 10.25h-3.5c-.414 0-.75-.336-.75-.75v-3c0-.414.336-.75.75-.75h3.5c.414 0 .75.336.75.75v3c0 .414-.336.75-.75.75z"/><path d="m12.5 11h-3.5c-.827 0-1.5-.673-1.5-1.5v-3c0-.827.673-1.5 1.5-1.5h3.5c.827 0 1.5.673 1.5 1.5v3c0 .827-.673 1.5-1.5 1.5zm0-1.5v.75zm-3.5-3v3h3.499l.001-3z"/><path d="m16.5 5.5v5l-2.5-2v-.915z"/><path d="m16.5 11c-.111 0-.222-.037-.312-.109l-2.5-2c-.119-.096-.188-.239-.188-.391v-.915c0-.148.065-.289.18-.384l2.5-2.085c.149-.125.357-.151.532-.069.176.082.288.259.288.453v5c0 .192-.11.367-.283.451-.07.033-.144.049-.217.049zm-2-2.74 1.5 1.2v-2.892l-1.5 1.251z"/><path d="m22.25 14h-2.756c-.778 0-1.452.501-1.677 1.247l-.858 2.862c-.157.525-.649.891-1.197.891h-7.524c-.548 0-1.04-.366-1.197-.891l-.858-2.862c-.224-.746-.898-1.247-1.677-1.247h-2.756c-.965 0-1.75.785-1.75 1.75v5.5c0 1.517 1.233 2.75 2.75 2.75h18.5c1.517 0 2.75-1.233 2.75-2.75v-5.5c0-.965-.785-1.75-1.75-1.75z"/><path d="m4 12c-.552 0-1-.448-1-1v-8c0-1.654 1.346-3 3-3h12c1.654 0 3 1.346 3 3v8c0 .552-.448 1-1 1s-1-.448-1-1v-8c0-.551-.449-1-1-1h-12c-.551 0-1 .449-1 1v8c0 .552-.448 1-1 1z"/></svg>