<svg enable-background="new 0 0 24 24" height="512" viewBox="0 0 24 24" width="512" xmlns="http://www.w3.org/2000/svg"><path d="m12.75 11c0 .828-.895 1.25-2 1.25s-2-.422-2-1.25.895-1.25 2-1.25 2 .422 2 1.25z"/><path d="m10.75 13c-1.645 0-2.75-.804-2.75-2s1.105-2 2.75-2 2.75.804 2.75 2-1.105 2-2.75 2zm0-2.5c-.606 0-1.25.175-1.25.5 0 .649 2.5.649 2.5 0 0-.325-.644-.5-1.25-.5z"/><path d="m12.75 11.75c-.414 0-.75-.336-.75-.75v-6.25c0-.233.108-.452.292-.594s.425-.189.649-.131c.059.016 1.449.393 2.822 1.678.263.246.313.645.12.949-.193.305-.576.428-.91.295-.009-.003-.674-.265-1.473-.386v4.439c0 .414-.336.75-.75.75z"/><path d="m22.25 14h-2.756c-.778 0-1.452.501-1.676 1.247l-.859 2.862c-.16.533-.641.891-1.197.891h-7.524c-.556 0-1.037-.358-1.197-.891l-.859-2.861c-.224-.747-.897-1.248-1.676-1.248h-2.756c-.965 0-1.75.785-1.75 1.75v5.5c0 1.517 1.233 2.75 2.75 2.75h18.5c1.517 0 2.75-1.233 2.75-2.75v-5.5c0-.965-.785-1.75-1.75-1.75z"/><path d="m4 12c-.552 0-1-.448-1-1v-8c0-1.654 1.346-3 3-3h12c1.654 0 3 1.346 3 3v8c0 .552-.448 1-1 1s-1-.448-1-1v-8c0-.551-.449-1-1-1h-12c-.551 0-1 .449-1 1v8c0 .552-.448 1-1 1z"/></svg>