<svg enable-background="new 0 0 24 24" height="512" viewBox="0 0 24 24" width="512" xmlns="http://www.w3.org/2000/svg"><path d="m22.25 13h-2.756c-.778 0-1.452.501-1.676 1.247l-.859 2.862c-.16.534-.641.891-1.197.891h-7.524c-.556 0-1.037-.358-1.197-.892l-.859-2.861c-.224-.746-.897-1.247-1.676-1.247h-2.756c-.965 0-1.75.785-1.75 1.75v5.5c0 1.517 1.233 2.75 2.75 2.75h18.5c1.517 0 2.75-1.233 2.75-2.75v-5.5c0-.965-.785-1.75-1.75-1.75z"/><path d="m22.25 1h-2.756c-.778 0-1.452.501-1.676 1.247l-.859 2.862c-.16.534-.641.891-1.197.891h-7.524c-.556 0-1.037-.358-1.197-.892l-.859-2.861c-.224-.746-.897-1.247-1.676-1.247h-2.756c-.965 0-1.75.785-1.75 1.75v5.5c0 1.517 1.233 2.75 2.75 2.75h18.5c1.517 0 2.75-1.233 2.75-2.75v-5.5c0-.965-.785-1.75-1.75-1.75z"/></svg>