<svg enable-background="new 0 0 24 24" height="512" viewBox="0 0 24 24" width="512" xmlns="http://www.w3.org/2000/svg"><path d="m7.56 18h3.44v-12h-3.44c-.996 0-1.922-.494-2.479-1.321l-1.917-2.829c-.099.284-.164.583-.164.9v18.5c0 .317.065.616.164.899l1.919-2.831c.555-.824 1.481-1.318 2.477-1.318z"/><path d="m21 2.75c0-.317-.065-.616-.164-.899l-1.919 2.831c-.555.824-1.481 1.318-2.477 1.318h-3.44v12h3.44c.995 0 1.922.494 2.479 1.321l1.917 2.828c.099-.283.164-.582.164-.899z"/><path d="m6.738 3.559c.187.277.492.441.822.441h8.881c.329 0 .635-.164.82-.438l2.211-3.263c-.37-.185-.781-.299-1.222-.299h-12.5c-.441 0-.852.114-1.221.299z"/><path d="m17.262 20.441c-.187-.277-.493-.441-.822-.441h-8.88c-.328 0-.635.164-.82.438l-2.211 3.262c.369.186.78.3 1.221.3h12.5c.441 0 .852-.114 1.221-.299z"/></svg>