<svg enable-background="new 0 0 24 24" height="512" viewBox="0 0 24 24" width="512" xmlns="http://www.w3.org/2000/svg"><path d="m19 2c0-1.103-.897-2-2-2h-10c-1.103 0-2 .897-2 2v6c0 1.103.897 2 2 2h10c1.103 0 2-.897 2-2zm-2 2-4.68 2.18c-.1.05-.21.07-.32.07s-.22-.02-.32-.07l-4.68-2.18v-1.66l5 2.33 5-2.33z"/><path d="m24 5.75c0-.965-.785-1.75-1.75-1.75h-.75c-.552 0-1 .448-1 1s.448 1 1 1h.5v12h-20v-12h.5c.552 0 1-.448 1-1s-.448-1-1-1h-.75c-.965 0-1.75.785-1.75 1.75v12.5c0 .965.785 1.75 1.75 1.75h8.25v2h-2c-.552 0-1 .448-1 1s.448 1 1 1h8c.553 0 1-.448 1-1s-.447-1-1-1h-2v-2h8.25c.965 0 1.75-.785 1.75-1.75z"/></svg>