<svg enable-background="new 0 0 24 24" height="512" viewBox="0 0 24 24" width="512" xmlns="http://www.w3.org/2000/svg"><path d="m15 7.01v-4.26c0-.301-.181-.573-.458-.691-.276-.117-.599-.058-.814.153l-8.5 8.25c-.146.141-.228.335-.228.538s.082.397.228.538l8.5 8.25c.216.21.539.269.814.153.277-.118.458-.39.458-.691v-4.214c2.594.246 4.925 1.755 6.201 4.062l1.393 2.516c.135.242.388.386.656.386.062 0 .125-.008.188-.024.331-.085.562-.384.562-.726v-4.805c0-5.058-3.998-9.201-9-9.435z"/><path d="m9.75 20.25c-.246 0-.493-.09-.686-.272l-8.75-8.25c-.201-.189-.314-.453-.314-.728s.113-.539.314-.728l8.75-8.25c.4-.379 1.034-.36 1.413.042s.36 1.035-.042 1.414l-7.977 7.522 7.978 7.522c.402.379.421 1.012.042 1.414-.197.209-.462.314-.728.314z"/></svg>