<svg enable-background="new 0 0 24 24" height="512" viewBox="0 0 24 24" width="512" xmlns="http://www.w3.org/2000/svg"><path d="m3.738 3.559c.186.277.493.441.822.441h8.88c.329 0 .636-.164.82-.438l2.212-3.263c-.37-.185-.781-.299-1.222-.299h-12.5c-.441 0-.852.114-1.222.299z"/><path d="m12 21.5c-1.93 0-3.5-1.57-3.5-3.5v-6c0-1.93 1.57-3.5 3.5-3.5h6v-5.75c0-.317-.065-.616-.164-.9l-1.919 2.831c-.554.825-1.481 1.319-2.477 1.319h-8.88c-.996 0-1.923-.494-2.48-1.322l-1.916-2.828c-.099.284-.164.583-.164.9v18.5c0 1.517 1.233 2.75 2.75 2.75h12.5c1.431 0 2.596-1.102 2.725-2.5z"/><path d="m22 10h-10c-1.103 0-2 .897-2 2v6c0 1.103.897 2 2 2h10c1.103 0 2-.897 2-2v-6c0-1.103-.897-2-2-2zm0 4-4.68 2.18c-.1.05-.21.07-.32.07s-.22-.02-.32-.07l-4.68-2.18v-1.66l5 2.33 5-2.33z"/></svg>