<svg enable-background="new 0 0 24 24" height="512" viewBox="0 0 24 24" width="512" xmlns="http://www.w3.org/2000/svg"><path d="m6.738 3.559c.187.277.493.441.822.441h8.881c.328 0 .635-.164.82-.438l2.211-3.263c-.37-.185-.781-.299-1.222-.299h-12.5c-.441 0-.852.114-1.221.299z"/><path d="m18.918 4.681c-.556.825-1.482 1.319-2.478 1.319h-3.44v3.212c.882.387 1.5 1.266 1.5 2.288 0 1.378-1.121 2.5-2.5 2.5s-2.5-1.122-2.5-2.5c0-1.023.618-1.901 1.5-2.288v-3.212h-3.44c-.996 0-1.922-.494-2.479-1.321l-1.917-2.829c-.099.284-.164.583-.164.9v18.5c0 1.517 1.233 2.75 2.75 2.75h12.5c1.517 0 2.75-1.233 2.75-2.75v-18.5c0-.317-.065-.616-.164-.9z"/></svg>