<svg enable-background="new 0 0 24 24" height="512" viewBox="0 0 24 24" width="512" xmlns="http://www.w3.org/2000/svg"><path d="m24 7c0-1.103-.897-2-2-2h-10c-1.103 0-2 .897-2 2v6c0 1.103.897 2 2 2h10c1.103 0 2-.897 2-2zm-2 2-4.68 2.18c-.1.05-.21.07-.32.07s-.22-.02-.32-.07l-4.68-2.18v-1.66l5 2.33 5-2.33z"/><path d="m15 16c-.552 0-1 .448-1 1v2h-12v-16c0-.552.448-1 1-1h10c.552 0 1 .448 1 1s.448 1 1 1 1-.448 1-1c0-1.657-1.343-3-3-3h-10c-1.657 0-3 1.343-3 3v18c0 1.657 1.343 3 3 3h10c1.657 0 3-1.343 3-3v-4c0-.552-.448-1-1-1z"/></svg>