<svg enable-background="new 0 0 24 24" height="512" viewBox="0 0 24 24" width="512" xmlns="http://www.w3.org/2000/svg"><path d="m21.75 8h-6.75v3c0 1.654-1.346 3-3 3s-3-1.346-3-3v-3h-6.75c-1.241 0-2.25 1.009-2.25 2.25v11.5c0 1.241 1.009 2.25 2.25 2.25h19.5c1.241 0 2.25-1.009 2.25-2.25v-11.5c0-1.241-1.009-2.25-2.25-2.25zm.25 4.91-8.61 4.5c-.43.22-.91.34-1.39.34s-.95-.12-1.39-.34l-8.61-4.5v-2.26l9.53 4.98c.29.15.65.15.94 0l9.53-4.98z"/><path d="m15.937 4.55c-.119.273-.389.45-.687.45h-2.25v6c0 .552-.448 1-1 1s-1-.448-1-1v-6h-2.25c-.298 0-.568-.177-.688-.45-.119-.274-.064-.592.138-.81l3.25-3.5c.142-.153.342-.24.55-.24s.408.087.55.24l3.25 3.5c.202.218.257.536.137.81z"/></svg>