<?xml version="1.0" ?><svg id="Layer_1" style="enable-background:new 0 0 515 515;" version="1.1" viewBox="0 0 515 515" xml:space="preserve" xmlns="http://www.w3.org/2000/svg" xmlns:xlink="http://www.w3.org/1999/xlink"><title/><g id="Layer_2"><g id="Layer_1-2"><path d="M310.6,291.2L310.6,291.2z"/><path d="M177.6,242.4c1.1,1.3,3.1,1.6,4.6,0.7c3.8-2.4,6.7-4.3,8.8-5.4c1-0.6,1.9-1,2.4-1.2l0.4-0.1c0.2,0,0.5,0.1,0.7,0.2    c0.9,0.4,1.7,1,2.4,1.8c2,2.3,3.6,4.8,4.7,7.6c2,4.4,3.7,8.9,5,13.6l6.9,23.5l0,0l7,23.6l0.1,0.3c3.4,8.9,7.4,15.7,12,20.5    c2.2,2.3,4.8,4.2,7.6,5.6c2.7,1.3,5.7,1.9,8.7,1.9l0,0c4.8-0.1,9.6-1.1,14-2.9c7.2-2.9,14.7-7.7,22.6-14.5    c9.1-8,17.4-16.7,25-26.1c11.3-13.5,20-25.7,25.9-36.5s9.3-20.5,9.7-29l0,0c0-1.3,0.1-2.6,0.1-3.9l0,0c0-4.4-0.5-8.8-1.7-13.1    c-0.8-2.8-2.1-5.4-3.7-7.8c-2.4-3.5-5.7-6.2-9.5-7.9c-4.2-1.8-8.7-2.8-13.3-2.8h-2c-5.7,0-11.4,0.8-16.8,2.5    c-7.7,2.5-14.6,7.1-19.9,13.2c-5.5,6.3-9.7,14.2-12.8,23.9c-0.6,1.8,0.4,3.8,2.3,4.4c0.7,0.2,1.5,0.2,2.3,0    c3.6-1.4,7.5-2.2,11.3-2.3c1.4,0,2.8,0.1,4.1,0.5c0.7,0.2,1.3,0.5,1.9,0.9c0.7,0.5,1.2,1.2,1.6,2c0.5,1.2,0.7,2.5,0.6,3.7    c0,0.9-0.1,1.7-0.2,2.6l0,0c-0.5,3-1.5,6-2.9,8.7c-2.3,4.7-5,9.3-7.9,13.6c-2.7,4-5.7,7.8-9,11.3c-0.9,0.9-1.9,1.8-3,2.5    c-0.3,0.2-0.6,0.3-0.9,0.4c-0.1,0-0.2,0.1-0.3,0.1c-0.1,0-0.2,0-0.2-0.1c-0.6-0.4-1.2-0.9-1.6-1.5c-1.5-2.2-2.8-4.6-3.6-7.2    c-1.6-4.2-2.8-8.6-3.9-12.9v-0.1c-0.3-1.1-0.7-2.7-1.1-4.8s-0.9-4.6-1.4-7.6l0,0c-1.1-6.1-2.4-14-4.1-23.7    c-0.6-4.1-1.7-8.1-3.2-11.9c-1-2.5-2.2-4.8-3.8-7c-4.2-6.1-11.2-9.7-18.6-9.6c-0.9,0-1.8,0-2.7,0.1H222c-1.9,0.3-3.9,0.8-5.7,1.5    c-3.4,1.4-6.7,3.1-9.7,5.1c-4,2.6-7.9,5.4-11.6,8.5h-0.1l-12.4,10.3L170,227.8c-1.5,1.2-1.7,3.4-0.5,4.9c0,0,0,0.1,0.1,0.1    L177.6,242.4z"/><path d="M257.5,465.8c115.2,0.1,208.6-93.1,208.8-208.3S373.1,48.9,258,48.7S49.3,141.9,49.2,257c-0.1,55.4,21.9,108.5,61.1,147.7    C149.3,443.9,202.3,465.8,257.5,465.8z M257.5,70.1c103.6-0.1,187.7,83.9,187.8,187.5c0.1,103.6-83.9,187.7-187.5,187.8    C154.2,445.4,70.1,361.5,70,257.9c0-49.8,19.7-97.6,55-132.9C160.1,89.8,207.8,70,257.5,70.1L257.5,70.1z"/></g></g></svg>